<?xml version="1.0" encoding="iso-8859-1"?>
<!-- Generator: Adobe Illustrator 19.0.0, SVG Export Plug-In . SVG Version: 6.00 Build 0)  -->
<svg xmlns="http://www.w3.org/2000/svg" xmlns:xlink="http://www.w3.org/1999/xlink" version="1.1" id="Capa_1" x="0px" y="0px" viewBox="0 0 511.618 511.618" style="enable-background:new 0 0 511.618 511.618;" xml:space="preserve" width="512px" height="512px">
<g>
	<g>
		<g>
			<path d="M429.02,335.938c-0.509-10-1.732-29.924-4.25-54.317c-54.935,16.146-111.894,24.363-169.152,24.402     c-57.301,0.77-114.375-7.351-169.188-24.071c-2.5,24.237-3.705,44.027-4.214,53.982c56.408,16.112,114.74,24.504,173.402,24.946     C314.281,360.452,372.615,352.061,429.02,335.938z" fill="#FFFFFF"/>
			<path d="M255.618,287.737c56.611-0.123,112.906-8.433,167.137-24.674c-9.186-74.703-28.827-164.562-65.994-179.184     c-47.491-18.679-95.911,10.228-96.393,10.522c-2.918,1.762-6.57,1.765-9.491,0.009c-0.482-0.295-49.125-29.134-96.402-10.531v0     c-37.223,14.642-56.862,104.665-66.03,179.409C142.519,280.259,198.95,288.512,255.618,287.737z" fill="#FFFFFF"/>
			<path d="M251.779,397.447c118.26,0,224.609-28.468,250.408-66.533c-16.319-15.499-36.022-26.986-57.55-33.552     c2.047,23.408,2.786,40.192,2.938,44.014l0.008,0.211l0.022,0.584l0.004,0.102v0.005c0.024,1.118-0.16,2.231-0.543,3.282     c-0.133,0.327-0.286,0.645-0.459,0.953c-0.767,1.674-2.056,3.053-3.674,3.932c-0.331,0.204-0.676,0.385-1.032,0.543     c-0.189,0.078-0.338,0.215-0.533,0.281c-60.228,18.293-122.805,27.692-185.75,27.897c-62.945-0.206-125.522-9.604-185.751-27.898     c-0.196-0.065-0.345-0.204-0.534-0.281c-0.355-0.157-0.699-0.339-1.03-0.542c-0.619-0.345-1.194-0.762-1.714-1.243     c-0.286-0.261-0.555-0.541-0.805-0.838c-0.46-0.569-0.849-1.192-1.158-1.855c-0.171-0.306-0.324-0.623-0.457-0.948     c-0.384-1.051-0.568-2.165-0.544-3.283v-0.009l0.004-0.097l0.022-0.584l0.008-0.202c0.151-3.803,0.889-20.596,2.938-44.023     c-30.476,11.081-51.903,24.541-61.416,38.384C36.723,371.741,138.174,397.447,251.779,397.447z" fill="#FFFFFF"/>
			<path d="M511.347,348.658c-36.667,39.975-139.353,67.075-259.568,67.075C140.368,415.733,42.132,391.84,0,356.13     c7.849,46.124,138.233,77.889,255.618,77.889c121.08,0,256-33.795,256-82.286C511.597,350.703,511.507,349.676,511.347,348.658z" fill="#FFFFFF"/>
		</g>
	</g>
</g>
<g>
</g>
<g>
</g>
<g>
</g>
<g>
</g>
<g>
</g>
<g>
</g>
<g>
</g>
<g>
</g>
<g>
</g>
<g>
</g>
<g>
</g>
<g>
</g>
<g>
</g>
<g>
</g>
<g>
</g>
</svg>
